<svg xmlns="http://www.w3.org/2000/svg" xmlns:xlink="http://www.w3.org/1999/xlink" width="500" zoomAndPan="magnify" viewBox="0 0 375 374.999991" height="500" preserveAspectRatio="xMidYMid meet" version="1.0"><defs><g/><clipPath id="6d4e7c32d9"><path d="M 10.523438 122.160156 L 76.617188 122.160156 L 76.617188 188.253906 L 10.523438 188.253906 Z M 10.523438 122.160156 " clip-rule="nonzero"/></clipPath><clipPath id="9284c727dc"><path d="M 11 193.785156 L 125.628906 193.785156 L 125.628906 247.996094 L 11 247.996094 Z M 11 193.785156 " clip-rule="nonzero"/></clipPath><clipPath id="72ee6f9dd0"><path d="M 119.007812 193.785156 L 252.679688 193.785156 L 252.679688 258.394531 L 119.007812 258.394531 Z M 119.007812 193.785156 " clip-rule="nonzero"/></clipPath><clipPath id="a38fce0f2b"><path d="M 249.386719 193.785156 L 364 193.785156 L 364 247.996094 L 249.386719 247.996094 Z M 249.386719 193.785156 " clip-rule="nonzero"/></clipPath><clipPath id="bc33a8f4be"><path d="M 162.460938 193.785156 L 296.132812 193.785156 L 296.132812 258.394531 L 162.460938 258.394531 Z M 162.460938 193.785156 " clip-rule="nonzero"/></clipPath><clipPath id="d5d043763f"><path d="M 15 126 L 73.433594 126 L 73.433594 184.339844 L 15 184.339844 Z M 15 126 " clip-rule="nonzero"/></clipPath></defs><g clip-path="url(#6d4e7c32d9)"><path fill="#293241" d="M 43.746094 127.75 C 43.382812 127.75 43.019531 127.757812 42.65625 127.769531 C 28.328125 128.316406 16.679688 139.964844 16.132812 154.292969 C 15.847656 161.882812 18.582031 169.066406 23.832031 174.523438 C 29.089844 179.984375 36.15625 182.992188 43.734375 182.992188 L 64.800781 182.992188 C 66.175781 182.992188 66.855469 182.066406 67.082031 181.671875 C 67.3125 181.273438 67.765625 180.21875 67.074219 179.03125 C 66.421875 177.921875 65.746094 176.761719 65.070312 175.601562 C 64.523438 174.660156 64.609375 173.476562 65.289062 172.628906 C 69.257812 167.683594 71.355469 161.710938 71.355469 155.371094 C 71.355469 147.792969 68.347656 140.726562 62.886719 135.46875 C 57.695312 130.46875 50.929688 127.75 43.746094 127.75 Z M 64.800781 188.253906 L 43.734375 188.253906 C 34.714844 188.253906 26.300781 184.671875 20.042969 178.171875 C 13.789062 171.675781 10.535156 163.125 10.878906 154.089844 C 11.527344 137.03125 25.394531 123.160156 42.457031 122.511719 C 51.476562 122.167969 60.039062 125.425781 66.535156 131.679688 C 73.035156 137.9375 76.617188 146.351562 76.617188 155.371094 C 76.617188 162.207031 74.457031 168.914062 70.496094 174.464844 C 70.875 175.113281 71.25 175.75 71.613281 176.378906 C 73.058594 178.851562 73.070312 181.808594 71.644531 184.289062 C 70.222656 186.769531 67.664062 188.253906 64.800781 188.253906 " fill-opacity="1" fill-rule="nonzero"/></g><g fill="#293241" fill-opacity="1"><g transform="translate(78.881915, 186.613126)"><g><path d="M 4.890625 0 L 4.890625 -37.359375 L 13.484375 -37.359375 L 14.390625 -30.34375 C 15.742188 -32.757812 17.585938 -34.679688 19.921875 -36.109375 C 22.253906 -37.546875 25.003906 -38.265625 28.171875 -38.265625 L 28.171875 -28.09375 L 25.453125 -28.09375 C 23.347656 -28.09375 21.46875 -27.765625 19.8125 -27.109375 C 18.15625 -26.460938 16.859375 -25.332031 15.921875 -23.71875 C 14.992188 -22.113281 14.53125 -19.878906 14.53125 -17.015625 L 14.53125 0 Z M 4.890625 0 "/></g></g></g><g fill="#293241" fill-opacity="1"><g transform="translate(105.690181, 186.613126)"><g><path d="M 22.8125 0.90625 C 19.195312 0.90625 15.945312 0.078125 13.0625 -1.578125 C 10.175781 -3.234375 7.890625 -5.53125 6.203125 -8.46875 C 4.523438 -11.40625 3.6875 -14.804688 3.6875 -18.671875 C 3.6875 -22.546875 4.539062 -25.945312 6.25 -28.875 C 7.957031 -31.8125 10.253906 -34.109375 13.140625 -35.765625 C 16.023438 -37.429688 19.273438 -38.265625 22.890625 -38.265625 C 26.460938 -38.265625 29.691406 -37.429688 32.578125 -35.765625 C 35.460938 -34.109375 37.742188 -31.8125 39.421875 -28.875 C 41.109375 -25.945312 41.953125 -22.546875 41.953125 -18.671875 C 41.953125 -14.804688 41.109375 -11.40625 39.421875 -8.46875 C 37.742188 -5.53125 35.445312 -3.234375 32.53125 -1.578125 C 29.625 0.078125 26.382812 0.90625 22.8125 0.90625 Z M 22.8125 -7.453125 C 25.320312 -7.453125 27.503906 -8.394531 29.359375 -10.28125 C 31.222656 -12.164062 32.15625 -14.960938 32.15625 -18.671875 C 32.15625 -22.390625 31.222656 -25.191406 29.359375 -27.078125 C 27.503906 -28.960938 25.347656 -29.90625 22.890625 -29.90625 C 20.328125 -29.90625 18.128906 -28.960938 16.296875 -27.078125 C 14.472656 -25.191406 13.5625 -22.390625 13.5625 -18.671875 C 13.5625 -14.960938 14.472656 -12.164062 16.296875 -10.28125 C 18.128906 -8.394531 20.300781 -7.453125 22.8125 -7.453125 Z M 22.8125 -7.453125 "/></g></g></g><g fill="#293241" fill-opacity="1"><g transform="translate(148.312591, 186.613126)"><g><path d="M 22.8125 0.90625 C 19.195312 0.90625 15.945312 0.078125 13.0625 -1.578125 C 10.175781 -3.234375 7.890625 -5.53125 6.203125 -8.46875 C 4.523438 -11.40625 3.6875 -14.804688 3.6875 -18.671875 C 3.6875 -22.546875 4.539062 -25.945312 6.25 -28.875 C 7.957031 -31.8125 10.253906 -34.109375 13.140625 -35.765625 C 16.023438 -37.429688 19.273438 -38.265625 22.890625 -38.265625 C 26.460938 -38.265625 29.691406 -37.429688 32.578125 -35.765625 C 35.460938 -34.109375 37.742188 -31.8125 39.421875 -28.875 C 41.109375 -25.945312 41.953125 -22.546875 41.953125 -18.671875 C 41.953125 -14.804688 41.109375 -11.40625 39.421875 -8.46875 C 37.742188 -5.53125 35.445312 -3.234375 32.53125 -1.578125 C 29.625 0.078125 26.382812 0.90625 22.8125 0.90625 Z M 22.8125 -7.453125 C 25.320312 -7.453125 27.503906 -8.394531 29.359375 -10.28125 C 31.222656 -12.164062 32.15625 -14.960938 32.15625 -18.671875 C 32.15625 -22.390625 31.222656 -25.191406 29.359375 -27.078125 C 27.503906 -28.960938 25.347656 -29.90625 22.890625 -29.90625 C 20.328125 -29.90625 18.128906 -28.960938 16.296875 -27.078125 C 14.472656 -25.191406 13.5625 -22.390625 13.5625 -18.671875 C 13.5625 -14.960938 14.472656 -12.164062 16.296875 -10.28125 C 18.128906 -8.394531 20.300781 -7.453125 22.8125 -7.453125 Z M 22.8125 -7.453125 "/></g></g></g><g fill="#293241" fill-opacity="1"><g transform="translate(190.935004, 186.613126)"><g><path d="M 4.890625 0 L 4.890625 -37.359375 L 13.40625 -37.359375 L 14.234375 -32.3125 C 15.441406 -34.113281 17.035156 -35.554688 19.015625 -36.640625 C 20.992188 -37.722656 23.289062 -38.265625 25.90625 -38.265625 C 31.675781 -38.265625 35.769531 -36.03125 38.1875 -31.5625 C 39.539062 -33.613281 41.359375 -35.242188 43.640625 -36.453125 C 45.929688 -37.660156 48.429688 -38.265625 51.140625 -38.265625 C 56.003906 -38.265625 59.742188 -36.804688 62.359375 -33.890625 C 64.972656 -30.972656 66.28125 -26.707031 66.28125 -21.09375 L 66.28125 0 L 56.640625 0 L 56.640625 -20.1875 C 56.640625 -23.394531 56.019531 -25.851562 54.78125 -27.5625 C 53.550781 -29.269531 51.660156 -30.125 49.109375 -30.125 C 46.492188 -30.125 44.394531 -29.171875 42.8125 -27.265625 C 41.226562 -25.359375 40.4375 -22.695312 40.4375 -19.28125 L 40.4375 0 L 30.796875 0 L 30.796875 -20.1875 C 30.796875 -23.394531 30.164062 -25.851562 28.90625 -27.5625 C 27.65625 -29.269531 25.726562 -30.125 23.125 -30.125 C 20.5625 -30.125 18.488281 -29.171875 16.90625 -27.265625 C 15.320312 -25.359375 14.53125 -22.695312 14.53125 -19.28125 L 14.53125 0 Z M 4.890625 0 "/></g></g></g><g fill="#293241" fill-opacity="1"><g transform="translate(258.483504, 186.613126)"><g><path d="M 10.09375 -43.15625 C 8.332031 -43.15625 6.882812 -43.679688 5.75 -44.734375 C 4.625 -45.785156 4.0625 -47.117188 4.0625 -48.734375 C 4.0625 -50.335938 4.625 -51.648438 5.75 -52.671875 C 6.882812 -53.703125 8.332031 -54.21875 10.09375 -54.21875 C 11.851562 -54.21875 13.296875 -53.703125 14.421875 -52.671875 C 15.546875 -51.648438 16.109375 -50.335938 16.109375 -48.734375 C 16.109375 -47.117188 15.546875 -45.785156 14.421875 -44.734375 C 13.296875 -43.679688 11.851562 -43.15625 10.09375 -43.15625 Z M 5.265625 0 L 5.265625 -37.359375 L 14.90625 -37.359375 L 14.90625 0 Z M 5.265625 0 "/></g></g></g><g fill="#293241" fill-opacity="1"><g transform="translate(275.577376, 186.613126)"><g><path d="M 23.046875 0.90625 C 19.273438 0.90625 15.929688 0.101562 13.015625 -1.5 C 10.109375 -3.113281 7.828125 -5.375 6.171875 -8.28125 C 4.515625 -11.195312 3.6875 -14.5625 3.6875 -18.375 C 3.6875 -22.238281 4.5 -25.675781 6.125 -28.6875 C 7.757812 -31.707031 10.019531 -34.054688 12.90625 -35.734375 C 15.800781 -37.421875 19.207031 -38.265625 23.125 -38.265625 C 26.789062 -38.265625 30.023438 -37.457031 32.828125 -35.84375 C 35.640625 -34.238281 37.835938 -32.039062 39.421875 -29.25 C 41.003906 -26.46875 41.796875 -23.367188 41.796875 -19.953125 C 41.796875 -19.398438 41.78125 -18.820312 41.75 -18.21875 C 41.726562 -17.625 41.691406 -17 41.640625 -16.34375 L 13.25 -16.34375 C 13.457031 -13.425781 14.472656 -11.140625 16.296875 -9.484375 C 18.128906 -7.828125 20.351562 -7 22.96875 -7 C 24.925781 -7 26.570312 -7.4375 27.90625 -8.3125 C 29.238281 -9.195312 30.226562 -10.34375 30.875 -11.75 L 40.671875 -11.75 C 39.960938 -9.382812 38.789062 -7.234375 37.15625 -5.296875 C 35.53125 -3.367188 33.523438 -1.851562 31.140625 -0.75 C 28.753906 0.351562 26.054688 0.90625 23.046875 0.90625 Z M 23.125 -30.421875 C 20.757812 -30.421875 18.671875 -29.753906 16.859375 -28.421875 C 15.054688 -27.097656 13.90625 -25.082031 13.40625 -22.375 L 32.015625 -22.375 C 31.859375 -24.832031 30.953125 -26.785156 29.296875 -28.234375 C 27.640625 -29.691406 25.582031 -30.421875 23.125 -30.421875 Z M 23.125 -30.421875 "/></g></g></g><g fill="#293241" fill-opacity="1"><g transform="translate(317.59734, 186.613126)"><g><path d="M 4.890625 0 L 4.890625 -37.359375 L 13.484375 -37.359375 L 14.390625 -30.34375 C 15.742188 -32.757812 17.585938 -34.679688 19.921875 -36.109375 C 22.253906 -37.546875 25.003906 -38.265625 28.171875 -38.265625 L 28.171875 -28.09375 L 25.453125 -28.09375 C 23.347656 -28.09375 21.46875 -27.765625 19.8125 -27.109375 C 18.15625 -26.460938 16.859375 -25.332031 15.921875 -23.71875 C 14.992188 -22.113281 14.53125 -19.878906 14.53125 -17.015625 L 14.53125 0 Z M 4.890625 0 "/></g></g></g><g clip-path="url(#9284c727dc)"><path fill="#293241" d="M 236.835938 491.574219 C 235.746094 491.574219 234.699219 491.351562 233.699219 490.914062 L 127.976562 444.554688 L 22.242188 490.914062 C 21.941406 491.046875 21.636719 491.15625 21.328125 491.246094 C 21.015625 491.339844 20.699219 491.410156 20.378906 491.464844 C 20.058594 491.519531 19.738281 491.550781 19.414062 491.5625 C 19.089844 491.578125 18.765625 491.570312 18.441406 491.542969 C 18.117188 491.515625 17.796875 491.46875 17.480469 491.402344 C 17.164062 491.335938 16.851562 491.25 16.542969 491.144531 C 16.238281 491.039062 15.9375 490.914062 15.644531 490.769531 C 15.355469 490.628906 15.074219 490.46875 14.800781 490.289062 C 14.53125 490.113281 14.269531 489.921875 14.023438 489.710938 C 13.773438 489.5 13.542969 489.277344 13.320312 489.039062 C 13.101562 488.800781 12.898438 488.550781 12.710938 488.285156 C 12.519531 488.023438 12.347656 487.746094 12.195312 487.460938 C 12.039062 487.175781 11.902344 486.882812 11.785156 486.582031 C 11.667969 486.28125 11.570312 485.972656 11.488281 485.660156 C 11.410156 485.34375 11.351562 485.027344 11.308594 484.707031 C 11.269531 484.382812 11.25 484.0625 11.25 483.738281 L 11.25 237.136719 C 11.25 235.71875 11.320312 234.304688 11.460938 232.890625 C 11.601562 231.476562 11.8125 230.074219 12.089844 228.683594 C 12.371094 227.292969 12.714844 225.917969 13.128906 224.558594 C 13.542969 223.203125 14.023438 221.867188 14.566406 220.554688 C 15.113281 219.246094 15.71875 217.964844 16.390625 216.710938 C 17.0625 215.460938 17.792969 214.246094 18.582031 213.066406 C 19.375 211.886719 20.21875 210.746094 21.121094 209.648438 C 22.023438 208.550781 22.976562 207.5 23.984375 206.496094 C 24.988281 205.496094 26.042969 204.542969 27.140625 203.640625 C 28.238281 202.742188 29.378906 201.894531 30.5625 201.105469 C 31.746094 200.320312 32.960938 199.589844 34.214844 198.917969 C 35.46875 198.25 36.753906 197.644531 38.066406 197.097656 C 39.378906 196.554688 40.71875 196.078125 42.078125 195.664062 C 43.4375 195.25 44.816406 194.90625 46.210938 194.628906 C 47.605469 194.351562 49.011719 194.140625 50.425781 194 C 51.839844 193.859375 53.257812 193.789062 54.679688 193.785156 L 201.242188 193.785156 C 202.664062 193.789062 204.082031 193.859375 205.496094 194 C 206.910156 194.140625 208.316406 194.351562 209.710938 194.628906 C 211.101562 194.910156 212.480469 195.253906 213.839844 195.667969 C 215.199219 196.082031 216.535156 196.558594 217.851562 197.105469 C 219.164062 197.648438 220.445312 198.253906 221.699219 198.925781 C 222.953125 199.59375 224.171875 200.324219 225.351562 201.113281 C 226.535156 201.902344 227.675781 202.746094 228.773438 203.648438 C 229.871094 204.546875 230.921875 205.5 231.929688 206.503906 C 232.933594 207.507812 233.886719 208.558594 234.789062 209.65625 C 235.691406 210.75 236.535156 211.890625 237.328125 213.070312 C 238.117188 214.25 238.847656 215.464844 239.515625 216.714844 C 240.1875 217.96875 240.796875 219.25 241.339844 220.558594 C 241.886719 221.871094 242.363281 223.203125 242.777344 224.5625 C 243.191406 225.917969 243.535156 227.292969 243.816406 228.6875 C 244.09375 230.078125 244.304688 231.480469 244.445312 232.890625 C 244.585938 234.304688 244.65625 235.71875 244.65625 237.136719 L 244.65625 483.738281 C 244.65625 484.25 244.605469 484.761719 244.507812 485.265625 C 244.40625 485.769531 244.257812 486.261719 244.058594 486.734375 C 243.863281 487.210938 243.621094 487.664062 243.335938 488.089844 C 243.046875 488.519531 242.722656 488.914062 242.359375 489.277344 C 241.992188 489.640625 241.597656 489.96875 241.167969 490.253906 C 240.738281 490.539062 240.285156 490.78125 239.8125 490.976562 C 239.335938 491.175781 238.84375 491.324219 238.339844 491.421875 C 237.832031 491.523438 237.320312 491.574219 236.804688 491.574219 Z M 127.976562 428.191406 C 129.070312 428.195312 130.117188 428.417969 131.117188 428.851562 L 228.972656 471.730469 L 228.972656 237.136719 C 228.96875 236.230469 228.925781 235.328125 228.835938 234.425781 C 228.746094 233.523438 228.613281 232.628906 228.4375 231.738281 C 228.257812 230.851562 228.039062 229.972656 227.773438 229.105469 C 227.507812 228.238281 227.203125 227.386719 226.855469 226.546875 C 226.507812 225.710938 226.121094 224.894531 225.691406 224.09375 C 225.265625 223.292969 224.796875 222.519531 224.292969 221.765625 C 223.789062 221.011719 223.25 220.285156 222.671875 219.582031 C 222.097656 218.882812 221.488281 218.210938 220.84375 217.570312 C 220.203125 216.929688 219.53125 216.324219 218.828125 215.746094 C 218.125 215.171875 217.398438 214.632812 216.644531 214.128906 C 215.886719 213.625 215.109375 213.160156 214.308594 212.734375 C 213.507812 212.304688 212.691406 211.917969 211.851562 211.570312 C 211.011719 211.222656 210.15625 210.917969 209.289062 210.65625 C 208.421875 210.390625 207.539062 210.171875 206.648438 209.996094 C 205.757812 209.816406 204.863281 209.683594 203.960938 209.59375 C 203.054688 209.503906 202.148438 209.460938 201.242188 209.460938 L 54.679688 209.460938 C 53.773438 209.460938 52.867188 209.507812 51.964844 209.597656 C 51.058594 209.6875 50.164062 209.820312 49.273438 209.996094 C 48.382812 210.175781 47.503906 210.394531 46.632812 210.660156 C 45.765625 210.921875 44.914062 211.226562 44.074219 211.574219 C 43.234375 211.921875 42.414062 212.308594 41.613281 212.738281 C 40.8125 213.164062 40.035156 213.628906 39.28125 214.132812 C 38.527344 214.636719 37.800781 215.175781 37.097656 215.753906 C 36.394531 216.328125 35.722656 216.933594 35.082031 217.574219 C 34.441406 218.214844 33.832031 218.886719 33.253906 219.585938 C 32.679688 220.289062 32.136719 221.015625 31.632812 221.769531 C 31.128906 222.523438 30.664062 223.296875 30.234375 224.097656 C 29.804688 224.894531 29.417969 225.714844 29.070312 226.550781 C 28.722656 227.386719 28.417969 228.242188 28.152344 229.105469 C 27.886719 229.972656 27.667969 230.851562 27.488281 231.742188 C 27.3125 232.628906 27.175781 233.523438 27.085938 234.425781 C 26.996094 235.328125 26.953125 236.230469 26.949219 237.136719 L 26.949219 471.730469 L 124.804688 428.882812 C 125.8125 428.433594 126.871094 428.203125 127.976562 428.191406 Z M 127.976562 428.191406 " fill-opacity="1" fill-rule="nonzero"/></g><g clip-path="url(#72ee6f9dd0)"><path fill="#293241" d="M 292.726562 491.574219 C 291.632812 491.574219 290.585938 491.351562 289.585938 490.914062 L 183.867188 444.554688 L 78.128906 490.914062 C 77.832031 491.046875 77.527344 491.15625 77.214844 491.246094 C 76.90625 491.339844 76.589844 491.410156 76.269531 491.464844 C 75.949219 491.519531 75.625 491.550781 75.300781 491.5625 C 74.976562 491.578125 74.65625 491.570312 74.332031 491.542969 C 74.007812 491.515625 73.6875 491.46875 73.371094 491.402344 C 73.050781 491.335938 72.738281 491.25 72.433594 491.144531 C 72.125 491.039062 71.828125 490.914062 71.535156 490.769531 C 71.242188 490.628906 70.960938 490.46875 70.691406 490.289062 C 70.417969 490.113281 70.160156 489.921875 69.910156 489.710938 C 69.664062 489.5 69.429688 489.277344 69.210938 489.039062 C 68.992188 488.800781 68.789062 488.550781 68.597656 488.285156 C 68.410156 488.023438 68.238281 487.746094 68.085938 487.460938 C 67.929688 487.175781 67.792969 486.882812 67.675781 486.582031 C 67.558594 486.28125 67.457031 485.972656 67.378906 485.660156 C 67.300781 485.34375 67.238281 485.027344 67.199219 484.707031 C 67.160156 484.382812 67.136719 484.0625 67.136719 483.738281 L 67.136719 237.136719 C 67.140625 235.71875 67.210938 234.304688 67.351562 232.890625 C 67.492188 231.476562 67.703125 230.074219 67.980469 228.683594 C 68.257812 227.292969 68.605469 225.917969 69.019531 224.558594 C 69.433594 223.203125 69.910156 221.867188 70.457031 220.554688 C 71 219.246094 71.609375 217.964844 72.28125 216.710938 C 72.953125 215.460938 73.683594 214.246094 74.472656 213.066406 C 75.261719 211.886719 76.109375 210.746094 77.011719 209.648438 C 77.914062 208.550781 78.867188 207.5 79.871094 206.496094 C 80.878906 205.496094 81.929688 204.542969 83.03125 203.640625 C 84.128906 202.742188 85.269531 201.894531 86.453125 201.105469 C 87.632812 200.320312 88.851562 199.589844 90.105469 198.917969 C 91.359375 198.25 92.644531 197.644531 93.957031 197.097656 C 95.269531 196.554688 96.605469 196.078125 97.96875 195.664062 C 99.328125 195.25 100.707031 194.90625 102.101562 194.628906 C 103.496094 194.351562 104.898438 194.140625 106.3125 194 C 107.730469 193.859375 109.148438 193.789062 110.570312 193.785156 L 257.128906 193.785156 C 258.550781 193.789062 259.96875 193.859375 261.386719 194 C 262.800781 194.140625 264.203125 194.351562 265.597656 194.628906 C 266.992188 194.910156 268.371094 195.253906 269.730469 195.667969 C 271.089844 196.082031 272.425781 196.558594 273.738281 197.105469 C 275.050781 197.648438 276.335938 198.253906 277.589844 198.925781 C 278.84375 199.59375 280.058594 200.324219 281.242188 201.113281 C 282.421875 201.902344 283.5625 202.746094 284.660156 203.648438 C 285.761719 204.546875 286.8125 205.5 287.816406 206.503906 C 288.824219 207.507812 289.777344 208.558594 290.679688 209.65625 C 291.578125 210.75 292.425781 211.890625 293.214844 213.070312 C 294.003906 214.25 294.734375 215.464844 295.40625 216.714844 C 296.078125 217.96875 296.683594 219.25 297.230469 220.558594 C 297.773438 221.871094 298.253906 223.203125 298.667969 224.5625 C 299.082031 225.917969 299.425781 227.292969 299.703125 228.6875 C 299.984375 230.078125 300.191406 231.480469 300.332031 232.890625 C 300.472656 234.304688 300.542969 235.71875 300.546875 237.136719 L 300.546875 483.738281 C 300.546875 484.25 300.496094 484.761719 300.394531 485.265625 C 300.296875 485.769531 300.144531 486.261719 299.949219 486.734375 C 299.75 487.210938 299.507812 487.664062 299.222656 488.089844 C 298.9375 488.519531 298.613281 488.914062 298.246094 489.277344 C 297.882812 489.640625 297.484375 489.96875 297.058594 490.253906 C 296.628906 490.539062 296.175781 490.78125 295.699219 490.976562 C 295.222656 491.175781 294.734375 491.324219 294.226562 491.421875 C 293.722656 491.523438 293.210938 491.574219 292.695312 491.574219 Z M 183.867188 428.191406 C 184.957031 428.195312 186.003906 428.417969 187.007812 428.851562 L 284.859375 471.730469 L 284.859375 237.136719 C 284.859375 236.230469 284.816406 235.328125 284.726562 234.425781 C 284.636719 233.523438 284.503906 232.628906 284.324219 231.738281 C 284.148438 230.851562 283.925781 229.972656 283.664062 229.105469 C 283.398438 228.238281 283.09375 227.386719 282.746094 226.546875 C 282.398438 225.710938 282.007812 224.894531 281.582031 224.09375 C 281.152344 223.292969 280.6875 222.519531 280.183594 221.765625 C 279.675781 221.011719 279.136719 220.285156 278.5625 219.582031 C 277.984375 218.882812 277.375 218.210938 276.734375 217.570312 C 276.089844 216.929688 275.417969 216.324219 274.71875 215.746094 C 274.015625 215.171875 273.289062 214.632812 272.53125 214.128906 C 271.777344 213.625 271 213.160156 270.199219 212.734375 C 269.398438 212.304688 268.578125 211.917969 267.738281 211.570312 C 266.902344 211.222656 266.046875 210.917969 265.179688 210.65625 C 264.308594 210.390625 263.429688 210.171875 262.539062 209.996094 C 261.648438 209.816406 260.75 209.683594 259.847656 209.59375 C 258.945312 209.503906 258.039062 209.460938 257.128906 209.460938 L 110.570312 209.460938 C 109.660156 209.460938 108.757812 209.507812 107.851562 209.597656 C 106.949219 209.6875 106.050781 209.820312 105.160156 209.996094 C 104.273438 210.175781 103.390625 210.394531 102.523438 210.660156 C 101.65625 210.921875 100.800781 211.226562 99.960938 211.574219 C 99.125 211.921875 98.304688 212.308594 97.503906 212.738281 C 96.703125 213.164062 95.925781 213.628906 95.171875 214.132812 C 94.417969 214.636719 93.6875 215.175781 92.988281 215.753906 C 92.285156 216.328125 91.613281 216.933594 90.972656 217.574219 C 90.328125 218.214844 89.71875 218.886719 89.144531 219.585938 C 88.566406 220.289062 88.027344 221.015625 87.523438 221.769531 C 87.019531 222.523438 86.550781 223.296875 86.125 224.097656 C 85.695312 224.894531 85.308594 225.714844 84.960938 226.550781 C 84.609375 227.386719 84.304688 228.242188 84.042969 229.105469 C 83.777344 229.972656 83.554688 230.851562 83.378906 231.742188 C 83.199219 232.628906 83.066406 233.523438 82.976562 234.425781 C 82.886719 235.328125 82.839844 236.230469 82.839844 237.136719 L 82.839844 471.730469 L 180.695312 428.882812 C 181.703125 428.433594 182.761719 428.203125 183.867188 428.191406 Z M 183.867188 428.191406 " fill-opacity="1" fill-rule="nonzero"/></g><g clip-path="url(#a38fce0f2b)"><path fill="#293241" d="M 138.15625 491.574219 C 139.25 491.574219 140.296875 491.351562 141.296875 490.914062 L 247.015625 444.554688 L 352.753906 490.914062 C 353.050781 491.046875 353.355469 491.15625 353.667969 491.246094 C 353.976562 491.339844 354.292969 491.410156 354.613281 491.464844 C 354.933594 491.519531 355.253906 491.550781 355.582031 491.5625 C 355.90625 491.578125 356.226562 491.570312 356.550781 491.542969 C 356.875 491.515625 357.195312 491.46875 357.511719 491.402344 C 357.832031 491.335938 358.144531 491.25 358.449219 491.144531 C 358.757812 491.039062 359.054688 490.914062 359.347656 490.769531 C 359.640625 490.628906 359.921875 490.46875 360.191406 490.289062 C 360.464844 490.113281 360.722656 489.921875 360.96875 489.710938 C 361.21875 489.5 361.453125 489.277344 361.671875 489.039062 C 361.890625 488.800781 362.09375 488.550781 362.285156 488.285156 C 362.472656 488.023438 362.644531 487.746094 362.796875 487.460938 C 362.953125 487.175781 363.089844 486.882812 363.207031 486.582031 C 363.324219 486.28125 363.425781 485.972656 363.503906 485.660156 C 363.582031 485.34375 363.644531 485.027344 363.683594 484.707031 C 363.722656 484.382812 363.746094 484.0625 363.746094 483.738281 L 363.746094 237.136719 C 363.742188 235.71875 363.671875 234.304688 363.53125 232.890625 C 363.390625 231.476562 363.179688 230.074219 362.902344 228.683594 C 362.625 227.292969 362.277344 225.917969 361.863281 224.558594 C 361.449219 223.203125 360.972656 221.867188 360.425781 220.554688 C 359.882812 219.246094 359.273438 217.964844 358.601562 216.710938 C 357.929688 215.460938 357.199219 214.246094 356.410156 213.066406 C 355.621094 211.886719 354.773438 210.746094 353.871094 209.648438 C 352.96875 208.550781 352.015625 207.5 351.011719 206.496094 C 350.003906 205.496094 348.953125 204.542969 347.851562 203.640625 C 346.753906 202.742188 345.613281 201.894531 344.429688 201.105469 C 343.25 200.320312 342.03125 199.589844 340.777344 198.917969 C 339.523438 198.25 338.238281 197.644531 336.925781 197.097656 C 335.613281 196.554688 334.277344 196.078125 332.914062 195.664062 C 331.554688 195.25 330.175781 194.90625 328.78125 194.628906 C 327.386719 194.351562 325.984375 194.140625 324.570312 194 C 323.152344 193.859375 321.734375 193.789062 320.3125 193.785156 L 173.75 193.785156 C 172.332031 193.789062 170.910156 193.859375 169.496094 194 C 168.082031 194.140625 166.679688 194.351562 165.285156 194.628906 C 163.890625 194.910156 162.511719 195.253906 161.152344 195.667969 C 159.792969 196.082031 158.457031 196.558594 157.144531 197.105469 C 155.832031 197.648438 154.546875 198.253906 153.292969 198.925781 C 152.039062 199.59375 150.824219 200.324219 149.640625 201.113281 C 148.460938 201.902344 147.320312 202.746094 146.222656 203.648438 C 145.121094 204.546875 144.070312 205.5 143.066406 206.503906 C 142.058594 207.507812 141.105469 208.558594 140.203125 209.65625 C 139.304688 210.75 138.457031 211.890625 137.667969 213.070312 C 136.875 214.25 136.148438 215.464844 135.476562 216.714844 C 134.804688 217.96875 134.199219 219.25 133.652344 220.558594 C 133.109375 221.871094 132.628906 223.203125 132.214844 224.5625 C 131.800781 225.917969 131.457031 227.292969 131.179688 228.6875 C 130.898438 230.078125 130.691406 231.480469 130.550781 232.890625 C 130.410156 234.304688 130.335938 235.71875 130.335938 237.136719 L 130.335938 483.738281 C 130.335938 484.25 130.386719 484.761719 130.488281 485.265625 C 130.585938 485.769531 130.738281 486.261719 130.933594 486.734375 C 131.132812 487.210938 131.371094 487.664062 131.660156 488.089844 C 131.945312 488.519531 132.269531 488.914062 132.636719 489.277344 C 133 489.640625 133.398438 489.96875 133.824219 490.253906 C 134.253906 490.539062 134.707031 490.78125 135.183594 490.976562 C 135.660156 491.175781 136.148438 491.324219 136.65625 491.421875 C 137.160156 491.523438 137.671875 491.574219 138.1875 491.574219 Z M 247.015625 428.191406 C 245.925781 428.195312 244.878906 428.417969 243.875 428.851562 L 146.023438 471.730469 L 146.023438 237.136719 C 146.023438 236.230469 146.066406 235.328125 146.15625 234.425781 C 146.246094 233.523438 146.378906 232.628906 146.558594 231.738281 C 146.734375 230.851562 146.957031 229.972656 147.21875 229.105469 C 147.484375 228.238281 147.789062 227.386719 148.136719 226.546875 C 148.484375 225.710938 148.871094 224.894531 149.300781 224.09375 C 149.730469 223.292969 150.195312 222.519531 150.699219 221.765625 C 151.203125 221.011719 151.746094 220.285156 152.320312 219.582031 C 152.898438 218.882812 153.507812 218.210938 154.148438 217.570312 C 154.789062 216.929688 155.460938 216.324219 156.164062 215.746094 C 156.867188 215.171875 157.59375 214.632812 158.351562 214.128906 C 159.105469 213.625 159.882812 213.160156 160.683594 212.734375 C 161.484375 212.304688 162.304688 211.917969 163.144531 211.570312 C 163.980469 211.222656 164.835938 210.917969 165.703125 210.65625 C 166.574219 210.390625 167.453125 210.171875 168.34375 209.996094 C 169.234375 209.816406 170.128906 209.683594 171.035156 209.59375 C 171.9375 209.503906 172.84375 209.460938 173.75 209.460938 L 320.3125 209.460938 C 321.222656 209.460938 322.125 209.507812 323.03125 209.597656 C 323.933594 209.6875 324.832031 209.820312 325.71875 209.996094 C 326.609375 210.175781 327.492188 210.394531 328.359375 210.660156 C 329.226562 210.921875 330.082031 211.226562 330.917969 211.574219 C 331.757812 211.921875 332.578125 212.308594 333.378906 212.738281 C 334.179688 213.164062 334.957031 213.628906 335.710938 214.132812 C 336.464844 214.636719 337.195312 215.175781 337.894531 215.753906 C 338.597656 216.328125 339.269531 216.933594 339.910156 217.574219 C 340.554688 218.214844 341.164062 218.886719 341.738281 219.585938 C 342.316406 220.289062 342.855469 221.015625 343.359375 221.769531 C 343.863281 222.523438 344.332031 223.296875 344.757812 224.097656 C 345.1875 224.894531 345.574219 225.714844 345.921875 226.550781 C 346.269531 227.386719 346.578125 228.242188 346.839844 229.105469 C 347.105469 229.972656 347.328125 230.851562 347.503906 231.742188 C 347.683594 232.628906 347.816406 233.523438 347.90625 234.425781 C 347.996094 235.328125 348.042969 236.230469 348.042969 237.136719 L 348.042969 471.730469 L 250.1875 428.882812 C 249.179688 428.433594 248.121094 428.203125 247.015625 428.191406 Z M 247.015625 428.191406 " fill-opacity="1" fill-rule="nonzero"/></g><g clip-path="url(#bc33a8f4be)"><path fill="#293241" d="M 336.179688 491.574219 C 335.085938 491.574219 334.039062 491.351562 333.039062 490.914062 L 227.320312 444.554688 L 121.582031 490.914062 C 121.285156 491.046875 120.980469 491.15625 120.667969 491.246094 C 120.359375 491.339844 120.042969 491.410156 119.722656 491.464844 C 119.402344 491.519531 119.078125 491.550781 118.753906 491.5625 C 118.429688 491.578125 118.105469 491.570312 117.785156 491.542969 C 117.460938 491.515625 117.140625 491.46875 116.824219 491.402344 C 116.503906 491.335938 116.191406 491.25 115.886719 491.144531 C 115.578125 491.039062 115.28125 490.914062 114.988281 490.769531 C 114.695312 490.628906 114.414062 490.46875 114.144531 490.289062 C 113.871094 490.113281 113.613281 489.921875 113.363281 489.710938 C 113.117188 489.5 112.882812 489.277344 112.664062 489.039062 C 112.445312 488.800781 112.238281 488.550781 112.050781 488.285156 C 111.863281 488.023438 111.691406 487.746094 111.539062 487.460938 C 111.382812 487.175781 111.246094 486.882812 111.128906 486.582031 C 111.011719 486.28125 110.910156 485.972656 110.832031 485.660156 C 110.753906 485.34375 110.691406 485.027344 110.652344 484.707031 C 110.613281 484.382812 110.589844 484.0625 110.589844 483.738281 L 110.589844 237.136719 C 110.59375 235.71875 110.664062 234.304688 110.804688 232.890625 C 110.945312 231.476562 111.15625 230.074219 111.433594 228.683594 C 111.710938 227.292969 112.058594 225.917969 112.472656 224.558594 C 112.886719 223.203125 113.363281 221.867188 113.910156 220.554688 C 114.453125 219.246094 115.0625 217.964844 115.734375 216.710938 C 116.402344 215.460938 117.136719 214.246094 117.925781 213.066406 C 118.714844 211.886719 119.5625 210.746094 120.464844 209.648438 C 121.367188 208.550781 122.320312 207.5 123.324219 206.496094 C 124.332031 205.496094 125.382812 204.542969 126.484375 203.640625 C 127.582031 202.742188 128.722656 201.894531 129.90625 201.105469 C 131.085938 200.320312 132.304688 199.589844 133.558594 198.917969 C 134.8125 198.25 136.097656 197.644531 137.410156 197.097656 C 138.722656 196.554688 140.058594 196.078125 141.421875 195.664062 C 142.78125 195.25 144.160156 194.90625 145.554688 194.628906 C 146.945312 194.351562 148.351562 194.140625 149.765625 194 C 151.183594 193.859375 152.601562 193.789062 154.023438 193.785156 L 300.582031 193.785156 C 302.003906 193.789062 303.421875 193.859375 304.839844 194 C 306.253906 194.140625 307.65625 194.351562 309.050781 194.628906 C 310.445312 194.910156 311.824219 195.253906 313.183594 195.667969 C 314.542969 196.082031 315.878906 196.558594 317.191406 197.105469 C 318.503906 197.648438 319.789062 198.253906 321.042969 198.925781 C 322.296875 199.59375 323.511719 200.324219 324.695312 201.113281 C 325.875 201.902344 327.015625 202.746094 328.113281 203.648438 C 329.214844 204.546875 330.265625 205.5 331.269531 206.503906 C 332.277344 207.507812 333.230469 208.558594 334.132812 209.65625 C 335.03125 210.75 335.878906 211.890625 336.667969 213.070312 C 337.457031 214.25 338.1875 215.464844 338.859375 216.714844 C 339.53125 217.96875 340.136719 219.25 340.683594 220.558594 C 341.226562 221.871094 341.707031 223.203125 342.121094 224.5625 C 342.53125 225.917969 342.878906 227.292969 343.15625 228.6875 C 343.4375 230.078125 343.644531 231.480469 343.785156 232.890625 C 343.925781 234.304688 343.996094 235.71875 344 237.136719 L 344 483.738281 C 344 484.25 343.949219 484.761719 343.847656 485.265625 C 343.746094 485.769531 343.597656 486.261719 343.402344 486.734375 C 343.203125 487.210938 342.960938 487.664062 342.675781 488.089844 C 342.390625 488.519531 342.0625 488.914062 341.699219 489.277344 C 341.335938 489.640625 340.9375 489.96875 340.511719 490.253906 C 340.082031 490.539062 339.628906 490.78125 339.152344 490.976562 C 338.675781 491.175781 338.1875 491.324219 337.679688 491.421875 C 337.175781 491.523438 336.664062 491.574219 336.148438 491.574219 Z M 227.320312 428.191406 C 228.410156 428.195312 229.457031 428.417969 230.460938 428.851562 L 328.3125 471.730469 L 328.3125 237.136719 C 328.3125 236.230469 328.269531 235.328125 328.179688 234.425781 C 328.089844 233.523438 327.957031 232.628906 327.777344 231.738281 C 327.601562 230.851562 327.378906 229.972656 327.117188 229.105469 C 326.851562 228.238281 326.546875 227.386719 326.199219 226.546875 C 325.851562 225.710938 325.460938 224.894531 325.035156 224.09375 C 324.605469 223.292969 324.140625 222.519531 323.636719 221.765625 C 323.128906 221.011719 322.589844 220.285156 322.015625 219.582031 C 321.4375 218.882812 320.828125 218.210938 320.1875 217.570312 C 319.542969 216.929688 318.871094 216.324219 318.171875 215.746094 C 317.46875 215.171875 316.742188 214.632812 315.984375 214.128906 C 315.230469 213.625 314.453125 213.160156 313.652344 212.734375 C 312.851562 212.304688 312.03125 211.917969 311.191406 211.570312 C 310.355469 211.222656 309.5 210.917969 308.632812 210.65625 C 307.761719 210.390625 306.882812 210.171875 305.992188 209.996094 C 305.101562 209.816406 304.203125 209.683594 303.300781 209.59375 C 302.398438 209.503906 301.492188 209.460938 300.582031 209.460938 L 154.023438 209.460938 C 153.113281 209.460938 152.210938 209.507812 151.304688 209.597656 C 150.402344 209.6875 149.503906 209.820312 148.613281 209.996094 C 147.726562 210.175781 146.84375 210.394531 145.976562 210.660156 C 145.109375 210.921875 144.253906 211.226562 143.414062 211.574219 C 142.578125 211.921875 141.757812 212.308594 140.957031 212.738281 C 140.15625 213.164062 139.378906 213.628906 138.625 214.132812 C 137.871094 214.636719 137.140625 215.175781 136.441406 215.753906 C 135.738281 216.328125 135.066406 216.933594 134.425781 217.574219 C 133.78125 218.214844 133.171875 218.886719 132.597656 219.585938 C 132.019531 220.289062 131.480469 221.015625 130.976562 221.769531 C 130.472656 222.523438 130.003906 223.296875 129.578125 224.097656 C 129.148438 224.894531 128.761719 225.714844 128.414062 226.550781 C 128.0625 227.386719 127.757812 228.242188 127.492188 229.105469 C 127.230469 229.972656 127.007812 230.851562 126.832031 231.742188 C 126.652344 232.628906 126.519531 233.523438 126.429688 234.425781 C 126.339844 235.328125 126.292969 236.230469 126.292969 237.136719 L 126.292969 471.730469 L 224.148438 428.882812 C 225.15625 428.433594 226.214844 428.203125 227.320312 428.191406 Z M 227.320312 428.191406 " fill-opacity="1" fill-rule="nonzero"/></g><g clip-path="url(#d5d043763f)"><path fill="#293241" d="M 44.339844 130.785156 C 44.019531 130.785156 43.699219 130.792969 43.375 130.804688 C 30.695312 131.285156 20.382812 141.597656 19.898438 154.28125 C 19.644531 161 22.066406 167.359375 26.714844 172.1875 C 31.367188 177.019531 37.621094 179.683594 44.328125 179.683594 L 62.976562 179.683594 C 64.195312 179.683594 64.792969 178.863281 64.996094 178.511719 C 65.199219 178.160156 65.601562 177.230469 64.988281 176.179688 C 64.410156 175.195312 63.8125 174.167969 63.214844 173.140625 C 62.730469 172.308594 62.804688 171.261719 63.410156 170.511719 C 66.917969 166.132812 68.777344 160.847656 68.777344 155.234375 C 68.777344 148.527344 66.113281 142.273438 61.28125 137.621094 C 56.683594 133.191406 50.699219 130.785156 44.339844 130.785156 Z M 62.976562 184.339844 L 44.328125 184.339844 C 36.347656 184.339844 28.898438 181.171875 23.359375 175.417969 C 17.824219 169.667969 14.941406 162.097656 15.246094 154.101562 C 15.820312 139 28.097656 126.726562 43.199219 126.148438 C 51.179688 125.84375 58.761719 128.730469 64.511719 134.265625 C 70.265625 139.804688 73.433594 147.25 73.433594 155.234375 C 73.433594 161.285156 71.523438 167.222656 68.019531 172.136719 C 68.351562 172.707031 68.683594 173.273438 69.007812 173.828125 C 70.285156 176.015625 70.296875 178.632812 69.035156 180.832031 C 67.773438 183.027344 65.511719 184.339844 62.976562 184.339844 " fill-opacity="1" fill-rule="nonzero"/></g></svg>