<svg xmlns="http://www.w3.org/2000/svg" xmlns:xlink="http://www.w3.org/1999/xlink" width="500" zoomAndPan="magnify" viewBox="0 0 375 374.999991" height="500" preserveAspectRatio="xMidYMid meet" version="1.0"><defs><g/><clipPath id="id1"><path d="M 7 121.507812 L 73.742188 121.507812 L 73.742188 188.257812 L 7 188.257812 Z M 7 121.507812 " clip-rule="nonzero"/></clipPath><clipPath id="id2"><path d="M 7 193.847656 L 123.242188 193.847656 L 123.242188 248.597656 L 7 248.597656 Z M 7 193.847656 " clip-rule="nonzero"/></clipPath><clipPath id="id3"><path d="M 116.558594 193.847656 L 251.558594 193.847656 L 251.558594 259.097656 L 116.558594 259.097656 Z M 116.558594 193.847656 " clip-rule="nonzero"/></clipPath><clipPath id="id4"><path d="M 251.773438 193.847656 L 368 193.847656 L 368 248.597656 L 251.773438 248.597656 Z M 251.773438 193.847656 " clip-rule="nonzero"/></clipPath></defs><g clip-path="url(#id1)"><path fill="#172d21" d="M 40.542969 127.15625 C 40.179688 127.15625 39.8125 127.164062 39.445312 127.175781 C 24.972656 127.726562 13.207031 139.492188 12.660156 153.960938 C 12.367188 161.628906 15.128906 168.882812 20.433594 174.394531 C 25.742188 179.90625 32.878906 182.945312 40.535156 182.945312 L 61.808594 182.945312 C 63.199219 182.945312 63.882812 182.011719 64.113281 181.613281 C 64.34375 181.210938 64.804688 180.148438 64.105469 178.949219 C 63.449219 177.828125 62.761719 176.65625 62.082031 175.480469 C 61.527344 174.53125 61.617188 173.339844 62.304688 172.484375 C 66.308594 167.484375 68.429688 161.457031 68.429688 155.050781 C 68.429688 147.398438 65.390625 140.257812 59.878906 134.953125 C 54.632812 129.898438 47.800781 127.15625 40.542969 127.15625 Z M 61.808594 188.257812 L 40.535156 188.257812 C 31.425781 188.257812 22.925781 184.644531 16.609375 178.078125 C 10.289062 171.519531 7.003906 162.878906 7.351562 153.757812 C 8.003906 136.527344 22.011719 122.519531 39.242188 121.863281 C 48.351562 121.515625 57 124.808594 63.5625 131.125 C 70.125 137.445312 73.742188 145.941406 73.742188 155.050781 C 73.742188 161.953125 71.558594 168.730469 67.5625 174.335938 C 67.945312 174.988281 68.324219 175.636719 68.691406 176.269531 C 70.148438 178.765625 70.160156 181.75 68.722656 184.257812 C 67.285156 186.761719 64.699219 188.257812 61.808594 188.257812 " fill-opacity="1" fill-rule="nonzero"/></g><g fill="#172d21" fill-opacity="1"><g transform="translate(76.032067, 186.712306)"><g><path d="M 4.9375 0 L 4.9375 -37.71875 L 13.609375 -37.71875 L 14.53125 -30.640625 C 15.894531 -33.078125 17.753906 -35.015625 20.109375 -36.453125 C 22.472656 -37.898438 25.25 -38.625 28.4375 -38.625 L 28.4375 -28.359375 L 25.703125 -28.359375 C 23.578125 -28.359375 21.675781 -28.03125 20 -27.375 C 18.320312 -26.71875 17.015625 -25.578125 16.078125 -23.953125 C 15.140625 -22.328125 14.671875 -20.070312 14.671875 -17.1875 L 14.671875 0 Z M 4.9375 0 "/></g></g></g><g fill="#172d21" fill-opacity="1"><g transform="translate(103.105144, 186.712306)"><g><path d="M 23.046875 0.90625 C 19.390625 0.90625 16.101562 0.0703125 13.1875 -1.59375 C 10.28125 -3.269531 7.972656 -5.585938 6.265625 -8.546875 C 4.566406 -11.515625 3.71875 -14.953125 3.71875 -18.859375 C 3.71875 -22.765625 4.578125 -26.195312 6.296875 -29.15625 C 8.023438 -32.125 10.347656 -34.441406 13.265625 -36.109375 C 16.179688 -37.785156 19.46875 -38.625 23.125 -38.625 C 26.71875 -38.625 29.972656 -37.785156 32.890625 -36.109375 C 35.804688 -34.441406 38.113281 -32.125 39.8125 -29.15625 C 41.507812 -26.195312 42.359375 -22.765625 42.359375 -18.859375 C 42.359375 -14.953125 41.507812 -11.515625 39.8125 -8.546875 C 38.113281 -5.585938 35.789062 -3.269531 32.84375 -1.59375 C 29.90625 0.0703125 26.640625 0.90625 23.046875 0.90625 Z M 23.046875 -7.53125 C 25.578125 -7.53125 27.78125 -8.476562 29.65625 -10.375 C 31.53125 -12.28125 32.46875 -15.109375 32.46875 -18.859375 C 32.46875 -22.609375 31.53125 -25.429688 29.65625 -27.328125 C 27.78125 -29.234375 25.601562 -30.1875 23.125 -30.1875 C 20.53125 -30.1875 18.304688 -29.234375 16.453125 -27.328125 C 14.609375 -25.429688 13.6875 -22.609375 13.6875 -18.859375 C 13.6875 -15.109375 14.609375 -12.28125 16.453125 -10.375 C 18.304688 -8.476562 20.503906 -7.53125 23.046875 -7.53125 Z M 23.046875 -7.53125 "/></g></g></g><g fill="#172d21" fill-opacity="1"><g transform="translate(146.148697, 186.712306)"><g><path d="M 23.046875 0.90625 C 19.390625 0.90625 16.101562 0.0703125 13.1875 -1.59375 C 10.28125 -3.269531 7.972656 -5.585938 6.265625 -8.546875 C 4.566406 -11.515625 3.71875 -14.953125 3.71875 -18.859375 C 3.71875 -22.765625 4.578125 -26.195312 6.296875 -29.15625 C 8.023438 -32.125 10.347656 -34.441406 13.265625 -36.109375 C 16.179688 -37.785156 19.46875 -38.625 23.125 -38.625 C 26.71875 -38.625 29.972656 -37.785156 32.890625 -36.109375 C 35.804688 -34.441406 38.113281 -32.125 39.8125 -29.15625 C 41.507812 -26.195312 42.359375 -22.765625 42.359375 -18.859375 C 42.359375 -14.953125 41.507812 -11.515625 39.8125 -8.546875 C 38.113281 -5.585938 35.789062 -3.269531 32.84375 -1.59375 C 29.90625 0.0703125 26.640625 0.90625 23.046875 0.90625 Z M 23.046875 -7.53125 C 25.578125 -7.53125 27.78125 -8.476562 29.65625 -10.375 C 31.53125 -12.28125 32.46875 -15.109375 32.46875 -18.859375 C 32.46875 -22.609375 31.53125 -25.429688 29.65625 -27.328125 C 27.78125 -29.234375 25.601562 -30.1875 23.125 -30.1875 C 20.53125 -30.1875 18.304688 -29.234375 16.453125 -27.328125 C 14.609375 -25.429688 13.6875 -22.609375 13.6875 -18.859375 C 13.6875 -15.109375 14.609375 -12.28125 16.453125 -10.375 C 18.304688 -8.476562 20.503906 -7.53125 23.046875 -7.53125 Z M 23.046875 -7.53125 "/></g></g></g><g fill="#172d21" fill-opacity="1"><g transform="translate(189.19225, 186.712306)"><g><path d="M 4.9375 0 L 4.9375 -37.71875 L 13.53125 -37.71875 L 14.375 -32.625 C 15.59375 -34.445312 17.203125 -35.898438 19.203125 -36.984375 C 21.203125 -38.078125 23.519531 -38.625 26.15625 -38.625 C 31.988281 -38.625 36.125 -36.367188 38.5625 -31.859375 C 39.925781 -33.941406 41.757812 -35.585938 44.0625 -36.796875 C 46.375 -38.015625 48.898438 -38.625 51.640625 -38.625 C 56.554688 -38.625 60.332031 -37.15625 62.96875 -34.21875 C 65.601562 -31.28125 66.921875 -26.972656 66.921875 -21.296875 L 66.921875 0 L 57.1875 0 L 57.1875 -20.375 C 57.1875 -23.625 56.566406 -26.109375 55.328125 -27.828125 C 54.085938 -29.554688 52.171875 -30.421875 49.578125 -30.421875 C 46.941406 -30.421875 44.828125 -29.457031 43.234375 -27.53125 C 41.640625 -25.601562 40.84375 -22.914062 40.84375 -19.46875 L 40.84375 0 L 31.109375 0 L 31.109375 -20.375 C 31.109375 -23.625 30.472656 -26.109375 29.203125 -27.828125 C 27.929688 -29.554688 25.976562 -30.421875 23.34375 -30.421875 C 20.757812 -30.421875 18.664062 -29.457031 17.0625 -27.53125 C 15.46875 -25.601562 14.671875 -22.914062 14.671875 -19.46875 L 14.671875 0 Z M 4.9375 0 "/></g></g></g><g fill="#172d21" fill-opacity="1"><g transform="translate(257.408311, 186.712306)"><g><path d="M 10.1875 -43.578125 C 8.414062 -43.578125 6.957031 -44.109375 5.8125 -45.171875 C 4.675781 -46.234375 4.109375 -47.578125 4.109375 -49.203125 C 4.109375 -50.828125 4.675781 -52.15625 5.8125 -53.1875 C 6.957031 -54.226562 8.414062 -54.75 10.1875 -54.75 C 11.96875 -54.75 13.425781 -54.226562 14.5625 -53.1875 C 15.707031 -52.15625 16.28125 -50.828125 16.28125 -49.203125 C 16.28125 -47.578125 15.707031 -46.234375 14.5625 -45.171875 C 13.425781 -44.109375 11.96875 -43.578125 10.1875 -43.578125 Z M 5.328125 0 L 5.328125 -37.71875 L 15.0625 -37.71875 L 15.0625 0 Z M 5.328125 0 "/></g></g></g><g fill="#172d21" fill-opacity="1"><g transform="translate(274.67097, 186.712306)"><g><path d="M 23.265625 0.90625 C 19.460938 0.90625 16.09375 0.0976562 13.15625 -1.515625 C 10.21875 -3.140625 7.910156 -5.421875 6.234375 -8.359375 C 4.554688 -11.304688 3.71875 -14.707031 3.71875 -18.5625 C 3.71875 -22.457031 4.539062 -25.925781 6.1875 -28.96875 C 7.84375 -32.007812 10.128906 -34.378906 13.046875 -36.078125 C 15.960938 -37.773438 19.394531 -38.625 23.34375 -38.625 C 27.039062 -38.625 30.3125 -37.8125 33.15625 -36.1875 C 36 -34.570312 38.21875 -32.359375 39.8125 -29.546875 C 41.40625 -26.734375 42.203125 -23.601562 42.203125 -20.15625 C 42.203125 -19.59375 42.1875 -19.003906 42.15625 -18.390625 C 42.132812 -17.785156 42.097656 -17.15625 42.046875 -16.5 L 13.390625 -16.5 C 13.585938 -13.5625 14.609375 -11.253906 16.453125 -9.578125 C 18.304688 -7.910156 20.550781 -7.078125 23.1875 -7.078125 C 25.164062 -7.078125 26.828125 -7.519531 28.171875 -8.40625 C 29.515625 -9.289062 30.515625 -10.441406 31.171875 -11.859375 L 41.0625 -11.859375 C 40.351562 -9.484375 39.175781 -7.316406 37.53125 -5.359375 C 35.882812 -3.410156 33.851562 -1.878906 31.4375 -0.765625 C 29.03125 0.347656 26.304688 0.90625 23.265625 0.90625 Z M 23.34375 -30.71875 C 20.957031 -30.71875 18.851562 -30.046875 17.03125 -28.703125 C 15.207031 -27.359375 14.039062 -25.320312 13.53125 -22.59375 L 32.3125 -22.59375 C 32.164062 -25.070312 31.253906 -27.046875 29.578125 -28.515625 C 27.910156 -29.984375 25.832031 -30.71875 23.34375 -30.71875 Z M 23.34375 -30.71875 "/></g></g></g><g fill="#172d21" fill-opacity="1"><g transform="translate(317.106116, 186.712306)"><g><path d="M 4.9375 0 L 4.9375 -37.71875 L 13.609375 -37.71875 L 14.53125 -30.640625 C 15.894531 -33.078125 17.753906 -35.015625 20.109375 -36.453125 C 22.472656 -37.898438 25.25 -38.625 28.4375 -38.625 L 28.4375 -28.359375 L 25.703125 -28.359375 C 23.578125 -28.359375 21.675781 -28.03125 20 -27.375 C 18.320312 -26.71875 17.015625 -25.578125 16.078125 -23.953125 C 15.140625 -22.328125 14.671875 -20.070312 14.671875 -17.1875 L 14.671875 0 Z M 4.9375 0 "/></g></g></g><g clip-path="url(#id2)"><path fill="#172d21" d="M 235.558594 494.597656 C 234.453125 494.597656 233.398438 494.375 232.386719 493.933594 L 125.613281 447.113281 L 18.824219 493.933594 C 18.523438 494.066406 18.21875 494.175781 17.902344 494.269531 C 17.589844 494.363281 17.269531 494.4375 16.945312 494.488281 C 16.625 494.542969 16.296875 494.574219 15.96875 494.589844 C 15.640625 494.601562 15.316406 494.59375 14.988281 494.566406 C 14.664062 494.539062 14.339844 494.492188 14.019531 494.425781 C 13.695312 494.359375 13.382812 494.269531 13.070312 494.164062 C 12.761719 494.058594 12.460938 493.933594 12.164062 493.789062 C 11.871094 493.644531 11.585938 493.484375 11.3125 493.304688 C 11.039062 493.125 10.777344 492.929688 10.527344 492.71875 C 10.277344 492.507812 10.039062 492.28125 9.816406 492.039062 C 9.597656 491.796875 9.390625 491.542969 9.199219 491.277344 C 9.007812 491.011719 8.835938 490.734375 8.679688 490.445312 C 8.523438 490.160156 8.386719 489.863281 8.265625 489.558594 C 8.148438 489.253906 8.046875 488.941406 7.96875 488.625 C 7.886719 488.308594 7.828125 487.988281 7.785156 487.664062 C 7.746094 487.339844 7.726562 487.011719 7.722656 486.683594 L 7.722656 237.632812 C 7.726562 236.199219 7.796875 234.769531 7.941406 233.34375 C 8.082031 231.914062 8.292969 230.5 8.574219 229.09375 C 8.855469 227.6875 9.207031 226.300781 9.625 224.929688 C 10.042969 223.554688 10.527344 222.207031 11.074219 220.882812 C 11.625 219.5625 12.242188 218.265625 12.917969 217.003906 C 13.59375 215.738281 14.332031 214.511719 15.132812 213.320312 C 15.929688 212.128906 16.785156 210.976562 17.695312 209.871094 C 18.605469 208.761719 19.570312 207.699219 20.585938 206.6875 C 21.601562 205.671875 22.664062 204.710938 23.773438 203.800781 C 24.882812 202.894531 26.035156 202.039062 27.230469 201.242188 C 28.425781 200.445312 29.652344 199.710938 30.921875 199.035156 C 32.1875 198.355469 33.484375 197.746094 34.808594 197.195312 C 36.136719 196.644531 37.488281 196.164062 38.859375 195.746094 C 40.234375 195.328125 41.625 194.980469 43.035156 194.699219 C 44.441406 194.417969 45.859375 194.207031 47.289062 194.066406 C 48.71875 193.921875 50.152344 193.851562 51.589844 193.847656 L 199.609375 193.847656 C 201.042969 193.851562 202.476562 193.921875 203.90625 194.066406 C 205.332031 194.207031 206.75 194.421875 208.160156 194.703125 C 209.566406 194.984375 210.957031 195.332031 212.332031 195.75 C 213.707031 196.167969 215.054688 196.648438 216.382812 197.199219 C 217.707031 197.75 219.003906 198.363281 220.269531 199.039062 C 221.535156 199.714844 222.765625 200.453125 223.957031 201.25 C 225.152344 202.046875 226.304688 202.898438 227.414062 203.808594 C 228.523438 204.71875 229.585938 205.679688 230.601562 206.691406 C 231.613281 207.707031 232.578125 208.765625 233.488281 209.875 C 234.398438 210.984375 235.253906 212.132812 236.050781 213.324219 C 236.847656 214.515625 237.585938 215.742188 238.265625 217.007812 C 238.941406 218.269531 239.554688 219.566406 240.105469 220.886719 C 240.65625 222.210938 241.140625 223.558594 241.558594 224.929688 C 241.972656 226.300781 242.324219 227.691406 242.605469 229.097656 C 242.886719 230.5 243.097656 231.917969 243.238281 233.34375 C 243.382812 234.769531 243.453125 236.199219 243.457031 237.632812 L 243.457031 486.683594 C 243.457031 487.203125 243.40625 487.71875 243.304688 488.230469 C 243.203125 488.738281 243.050781 489.234375 242.851562 489.714844 C 242.652344 490.195312 242.40625 490.648438 242.117188 491.082031 C 241.828125 491.515625 241.5 491.914062 241.132812 492.28125 C 240.765625 492.648438 240.363281 492.976562 239.929688 493.265625 C 239.5 493.554688 239.042969 493.796875 238.558594 493.996094 C 238.078125 494.195312 237.582031 494.347656 237.074219 494.449219 C 236.5625 494.546875 236.046875 494.597656 235.527344 494.597656 Z M 125.613281 430.585938 C 126.714844 430.589844 127.773438 430.8125 128.785156 431.253906 L 227.613281 474.558594 L 227.613281 237.632812 C 227.613281 236.71875 227.566406 235.804688 227.476562 234.894531 C 227.386719 233.980469 227.25 233.078125 227.074219 232.179688 C 226.894531 231.28125 226.671875 230.394531 226.402344 229.519531 C 226.136719 228.644531 225.828125 227.78125 225.476562 226.9375 C 225.125 226.089844 224.734375 225.265625 224.300781 224.457031 C 223.867188 223.652344 223.398438 222.867188 222.886719 222.105469 C 222.378906 221.34375 221.832031 220.609375 221.25 219.902344 C 220.667969 219.195312 220.054688 218.519531 219.40625 217.871094 C 218.757812 217.222656 218.078125 216.609375 217.371094 216.027344 C 216.660156 215.449219 215.925781 214.902344 215.164062 214.394531 C 214.398438 213.886719 213.613281 213.414062 212.804688 212.984375 C 211.996094 212.550781 211.167969 212.160156 210.324219 211.808594 C 209.476562 211.460938 208.613281 211.152344 207.734375 210.886719 C 206.859375 210.621094 205.96875 210.398438 205.070312 210.21875 C 204.171875 210.039062 203.265625 209.90625 202.351562 209.816406 C 201.441406 209.722656 200.523438 209.679688 199.609375 209.679688 L 51.589844 209.679688 C 50.671875 209.679688 49.757812 209.726562 48.84375 209.816406 C 47.929688 209.90625 47.027344 210.042969 46.125 210.222656 C 45.226562 210.398438 44.339844 210.621094 43.460938 210.890625 C 42.585938 211.15625 41.722656 211.464844 40.875 211.816406 C 40.027344 212.164062 39.199219 212.558594 38.394531 212.988281 C 37.585938 213.421875 36.796875 213.890625 36.035156 214.398438 C 35.273438 214.90625 34.539062 215.453125 33.832031 216.035156 C 33.121094 216.613281 32.441406 217.226562 31.792969 217.875 C 31.144531 218.523438 30.53125 219.199219 29.949219 219.90625 C 29.367188 220.613281 28.820312 221.347656 28.3125 222.109375 C 27.800781 222.871094 27.332031 223.652344 26.898438 224.460938 C 26.464844 225.269531 26.074219 226.09375 25.722656 226.941406 C 25.371094 227.785156 25.0625 228.644531 24.796875 229.519531 C 24.527344 230.398438 24.304688 231.285156 24.125 232.179688 C 23.945312 233.078125 23.8125 233.984375 23.71875 234.894531 C 23.628906 235.804688 23.582031 236.71875 23.582031 237.632812 L 23.582031 474.558594 L 122.410156 431.285156 C 123.429688 430.828125 124.496094 430.597656 125.613281 430.585938 Z M 125.613281 430.585938 " fill-opacity="1" fill-rule="nonzero"/></g><g clip-path="url(#id3)"><path fill="#172d21" d="M 292.003906 494.597656 C 290.898438 494.597656 289.84375 494.375 288.832031 493.933594 L 182.058594 447.113281 L 75.269531 493.933594 C 74.96875 494.066406 74.664062 494.175781 74.347656 494.269531 C 74.035156 494.363281 73.714844 494.4375 73.390625 494.488281 C 73.070312 494.542969 72.742188 494.574219 72.414062 494.589844 C 72.085938 494.601562 71.761719 494.59375 71.433594 494.566406 C 71.109375 494.539062 70.785156 494.492188 70.464844 494.425781 C 70.140625 494.359375 69.828125 494.269531 69.515625 494.164062 C 69.207031 494.058594 68.90625 493.933594 68.609375 493.789062 C 68.316406 493.644531 68.03125 493.484375 67.757812 493.304688 C 67.484375 493.125 67.222656 492.929688 66.972656 492.71875 C 66.722656 492.507812 66.484375 492.28125 66.261719 492.039062 C 66.042969 491.796875 65.835938 491.542969 65.644531 491.277344 C 65.453125 491.011719 65.28125 490.734375 65.125 490.445312 C 64.96875 490.160156 64.832031 489.863281 64.710938 489.558594 C 64.59375 489.253906 64.492188 488.941406 64.414062 488.625 C 64.332031 488.308594 64.273438 487.988281 64.230469 487.664062 C 64.191406 487.339844 64.171875 487.011719 64.167969 486.683594 L 64.167969 237.632812 C 64.171875 236.199219 64.242188 234.769531 64.386719 233.34375 C 64.527344 231.914062 64.738281 230.5 65.019531 229.09375 C 65.300781 227.6875 65.652344 226.300781 66.070312 224.929688 C 66.488281 223.554688 66.972656 222.207031 67.519531 220.882812 C 68.070312 219.5625 68.6875 218.265625 69.363281 217.003906 C 70.039062 215.738281 70.777344 214.511719 71.578125 213.320312 C 72.375 212.128906 73.230469 210.976562 74.140625 209.871094 C 75.050781 208.761719 76.015625 207.699219 77.03125 206.6875 C 78.046875 205.671875 79.109375 204.710938 80.21875 203.800781 C 81.328125 202.894531 82.480469 202.039062 83.675781 201.242188 C 84.871094 200.445312 86.097656 199.710938 87.367188 199.035156 C 88.632812 198.355469 89.929688 197.746094 91.253906 197.195312 C 92.582031 196.644531 93.933594 196.164062 95.304688 195.746094 C 96.679688 195.328125 98.070312 194.980469 99.480469 194.699219 C 100.886719 194.417969 102.304688 194.207031 103.734375 194.066406 C 105.164062 193.921875 106.597656 193.851562 108.035156 193.847656 L 256.054688 193.847656 C 257.488281 193.851562 258.921875 193.921875 260.351562 194.066406 C 261.777344 194.207031 263.195312 194.421875 264.605469 194.703125 C 266.011719 194.984375 267.402344 195.332031 268.777344 195.75 C 270.152344 196.167969 271.5 196.648438 272.828125 197.199219 C 274.152344 197.75 275.449219 198.363281 276.714844 199.039062 C 277.980469 199.714844 279.210938 200.453125 280.402344 201.25 C 281.597656 202.046875 282.75 202.898438 283.859375 203.808594 C 284.96875 204.71875 286.03125 205.679688 287.042969 206.691406 C 288.058594 207.707031 289.023438 208.765625 289.933594 209.875 C 290.84375 210.984375 291.699219 212.132812 292.496094 213.324219 C 293.292969 214.515625 294.03125 215.742188 294.710938 217.007812 C 295.386719 218.269531 296 219.566406 296.550781 220.886719 C 297.101562 222.210938 297.585938 223.558594 298.003906 224.929688 C 298.417969 226.300781 298.769531 227.691406 299.050781 229.097656 C 299.332031 230.5 299.542969 231.917969 299.683594 233.34375 C 299.828125 234.769531 299.898438 236.199219 299.902344 237.632812 L 299.902344 486.683594 C 299.902344 487.203125 299.851562 487.71875 299.75 488.230469 C 299.648438 488.738281 299.496094 489.234375 299.296875 489.714844 C 299.097656 490.195312 298.851562 490.648438 298.5625 491.082031 C 298.273438 491.515625 297.945312 491.914062 297.578125 492.28125 C 297.210938 492.648438 296.808594 492.976562 296.375 493.265625 C 295.945312 493.554688 295.488281 493.796875 295.003906 493.996094 C 294.523438 494.195312 294.027344 494.347656 293.519531 494.449219 C 293.007812 494.546875 292.492188 494.597656 291.972656 494.597656 Z M 182.058594 430.585938 C 183.160156 430.589844 184.21875 430.8125 185.230469 431.253906 L 284.058594 474.558594 L 284.058594 237.632812 C 284.058594 236.71875 284.011719 235.804688 283.921875 234.894531 C 283.832031 233.980469 283.695312 233.078125 283.515625 232.179688 C 283.339844 231.28125 283.117188 230.394531 282.847656 229.519531 C 282.582031 228.644531 282.273438 227.78125 281.921875 226.9375 C 281.570312 226.089844 281.179688 225.265625 280.746094 224.457031 C 280.3125 223.652344 279.84375 222.867188 279.332031 222.105469 C 278.824219 221.34375 278.277344 220.609375 277.695312 219.902344 C 277.113281 219.195312 276.5 218.519531 275.851562 217.871094 C 275.203125 217.222656 274.523438 216.609375 273.816406 216.027344 C 273.105469 215.449219 272.371094 214.902344 271.609375 214.394531 C 270.84375 213.886719 270.058594 213.414062 269.25 212.984375 C 268.441406 212.550781 267.613281 212.160156 266.769531 211.808594 C 265.921875 211.460938 265.058594 211.152344 264.179688 210.886719 C 263.304688 210.621094 262.414062 210.398438 261.515625 210.21875 C 260.617188 210.039062 259.710938 209.90625 258.796875 209.816406 C 257.886719 209.722656 256.96875 209.679688 256.054688 209.679688 L 108.035156 209.679688 C 107.117188 209.679688 106.203125 209.726562 105.289062 209.816406 C 104.375 209.90625 103.472656 210.042969 102.570312 210.222656 C 101.671875 210.398438 100.785156 210.621094 99.90625 210.890625 C 99.03125 211.15625 98.167969 211.464844 97.320312 211.816406 C 96.472656 212.164062 95.644531 212.558594 94.839844 212.988281 C 94.03125 213.421875 93.242188 213.890625 92.480469 214.398438 C 91.71875 214.90625 90.984375 215.453125 90.277344 216.035156 C 89.566406 216.613281 88.886719 217.226562 88.238281 217.875 C 87.589844 218.523438 86.976562 219.199219 86.394531 219.90625 C 85.8125 220.613281 85.265625 221.347656 84.757812 222.109375 C 84.246094 222.871094 83.777344 223.652344 83.34375 224.460938 C 82.910156 225.269531 82.519531 226.09375 82.167969 226.941406 C 81.816406 227.785156 81.507812 228.644531 81.242188 229.519531 C 80.972656 230.398438 80.75 231.285156 80.570312 232.179688 C 80.390625 233.078125 80.257812 233.984375 80.164062 234.894531 C 80.074219 235.804688 80.027344 236.71875 80.027344 237.632812 L 80.027344 474.558594 L 178.855469 431.285156 C 179.875 430.828125 180.941406 430.597656 182.058594 430.585938 Z M 182.058594 430.585938 " fill-opacity="1" fill-rule="nonzero"/></g><g clip-path="url(#id4)"><path fill="#172d21" d="M 139.433594 494.597656 C 140.539062 494.597656 141.597656 494.375 142.605469 493.933594 L 249.378906 447.113281 L 356.167969 493.933594 C 356.46875 494.066406 356.777344 494.175781 357.089844 494.269531 C 357.40625 494.363281 357.722656 494.4375 358.046875 494.488281 C 358.371094 494.542969 358.695312 494.574219 359.023438 494.589844 C 359.351562 494.601562 359.679688 494.59375 360.003906 494.566406 C 360.332031 494.539062 360.65625 494.492188 360.976562 494.425781 C 361.296875 494.359375 361.613281 494.269531 361.921875 494.164062 C 362.230469 494.058594 362.535156 493.933594 362.828125 493.789062 C 363.121094 493.644531 363.40625 493.484375 363.679688 493.304688 C 363.957031 493.125 364.21875 492.929688 364.46875 492.71875 C 364.71875 492.507812 364.953125 492.28125 365.175781 492.039062 C 365.398438 491.796875 365.601562 491.542969 365.792969 491.277344 C 365.984375 491.011719 366.15625 490.734375 366.3125 490.445312 C 366.46875 490.160156 366.605469 489.863281 366.726562 489.558594 C 366.84375 489.253906 366.945312 488.941406 367.027344 488.625 C 367.105469 488.308594 367.167969 487.988281 367.207031 487.664062 C 367.25 487.339844 367.269531 487.011719 367.269531 486.683594 L 367.269531 237.632812 C 367.265625 236.199219 367.195312 234.769531 367.054688 233.34375 C 366.910156 231.914062 366.699219 230.5 366.417969 229.09375 C 366.136719 227.6875 365.789062 226.300781 365.371094 224.929688 C 364.953125 223.554688 364.46875 222.207031 363.917969 220.882812 C 363.367188 219.5625 362.753906 218.265625 362.074219 217.003906 C 361.398438 215.738281 360.660156 214.511719 359.863281 213.320312 C 359.0625 212.128906 358.207031 210.976562 357.296875 209.871094 C 356.386719 208.761719 355.421875 207.699219 354.40625 206.6875 C 353.390625 205.671875 352.328125 204.710938 351.21875 203.800781 C 350.109375 202.894531 348.957031 202.039062 347.761719 201.242188 C 346.570312 200.445312 345.339844 199.710938 344.074219 199.035156 C 342.808594 198.355469 341.511719 197.746094 340.183594 197.195312 C 338.855469 196.644531 337.507812 196.164062 336.132812 195.746094 C 334.757812 195.328125 333.367188 194.980469 331.960938 194.699219 C 330.550781 194.417969 329.132812 194.207031 327.703125 194.066406 C 326.273438 193.921875 324.839844 193.851562 323.40625 193.847656 L 175.386719 193.847656 C 173.949219 193.851562 172.519531 193.921875 171.089844 194.066406 C 169.660156 194.207031 168.242188 194.421875 166.832031 194.703125 C 165.425781 194.984375 164.035156 195.332031 162.660156 195.75 C 161.289062 196.167969 159.9375 196.648438 158.613281 197.199219 C 157.285156 197.75 155.988281 198.363281 154.722656 199.039062 C 153.457031 199.714844 152.230469 200.453125 151.035156 201.25 C 149.84375 202.046875 148.691406 202.898438 147.582031 203.808594 C 146.472656 204.71875 145.410156 205.679688 144.394531 206.691406 C 143.378906 207.707031 142.414062 208.765625 141.503906 209.875 C 140.59375 210.984375 139.738281 212.132812 138.941406 213.324219 C 138.144531 214.515625 137.40625 215.742188 136.730469 217.007812 C 136.050781 218.269531 135.4375 219.566406 134.886719 220.886719 C 134.339844 222.210938 133.855469 223.558594 133.4375 224.929688 C 133.019531 226.300781 132.667969 227.691406 132.386719 229.097656 C 132.105469 230.5 131.894531 231.917969 131.753906 233.34375 C 131.613281 234.769531 131.539062 236.199219 131.539062 237.632812 L 131.539062 486.683594 C 131.539062 487.203125 131.589844 487.71875 131.691406 488.230469 C 131.792969 488.738281 131.941406 489.234375 132.140625 489.714844 C 132.339844 490.195312 132.585938 490.648438 132.875 491.082031 C 133.164062 491.515625 133.492188 491.914062 133.859375 492.28125 C 134.230469 492.648438 134.628906 492.976562 135.0625 493.265625 C 135.496094 493.554688 135.953125 493.796875 136.433594 493.996094 C 136.914062 494.195312 137.410156 494.347656 137.921875 494.449219 C 138.429688 494.546875 138.945312 494.597656 139.46875 494.597656 Z M 249.378906 430.585938 C 248.277344 430.589844 247.21875 430.8125 246.207031 431.253906 L 147.378906 474.558594 L 147.378906 237.632812 C 147.378906 236.71875 147.425781 235.804688 147.515625 234.894531 C 147.605469 233.980469 147.742188 233.078125 147.921875 232.179688 C 148.101562 231.28125 148.324219 230.394531 148.589844 229.519531 C 148.855469 228.644531 149.164062 227.78125 149.515625 226.9375 C 149.867188 226.089844 150.257812 225.265625 150.691406 224.457031 C 151.125 223.652344 151.59375 222.867188 152.105469 222.105469 C 152.613281 221.34375 153.160156 220.609375 153.742188 219.902344 C 154.324219 219.195312 154.9375 218.519531 155.585938 217.871094 C 156.234375 217.222656 156.914062 216.609375 157.625 216.027344 C 158.332031 215.449219 159.066406 214.902344 159.832031 214.394531 C 160.59375 213.886719 161.378906 213.414062 162.1875 212.984375 C 162.996094 212.550781 163.824219 212.160156 164.671875 211.808594 C 165.519531 211.460938 166.378906 211.152344 167.257812 210.886719 C 168.136719 210.621094 169.023438 210.398438 169.921875 210.21875 C 170.824219 210.039062 171.730469 209.90625 172.640625 209.816406 C 173.554688 209.722656 174.46875 209.679688 175.386719 209.679688 L 323.40625 209.679688 C 324.320312 209.679688 325.238281 209.726562 326.148438 209.816406 C 327.0625 209.90625 327.96875 210.042969 328.867188 210.222656 C 329.765625 210.398438 330.652344 210.621094 331.53125 210.890625 C 332.410156 211.15625 333.269531 211.464844 334.117188 211.816406 C 334.964844 212.164062 335.792969 212.558594 336.601562 212.988281 C 337.410156 213.421875 338.195312 213.890625 338.957031 214.398438 C 339.71875 214.90625 340.453125 215.453125 341.164062 216.035156 C 341.871094 216.613281 342.550781 217.226562 343.199219 217.875 C 343.847656 218.523438 344.460938 219.199219 345.042969 219.90625 C 345.625 220.613281 346.171875 221.347656 346.679688 222.109375 C 347.191406 222.871094 347.660156 223.652344 348.09375 224.460938 C 348.527344 225.269531 348.917969 226.09375 349.269531 226.941406 C 349.621094 227.785156 349.929688 228.644531 350.199219 229.519531 C 350.464844 230.398438 350.6875 231.285156 350.867188 232.179688 C 351.046875 233.078125 351.183594 233.984375 351.273438 234.894531 C 351.363281 235.804688 351.410156 236.71875 351.410156 237.632812 L 351.410156 474.558594 L 252.582031 431.285156 C 251.5625 430.828125 250.496094 430.597656 249.378906 430.585938 Z M 249.378906 430.585938 " fill-opacity="1" fill-rule="nonzero"/></g></svg>